<svg width="42" height="31" viewBox="0 0 42 31" fill="none" xmlns="http://www.w3.org/2000/svg">
<g opacity="0.3">
<path fill-rule="evenodd" clip-rule="evenodd" d="M38.7421 30.5933L40.0583 -6.29425e-05H0L1.64679 30.5066L38.7421 30.5933Z" fill="url(#paint0_linear_486_2970)"/>
<path fill-rule="evenodd" clip-rule="evenodd" d="M40.0583 -6.29425e-05L41.2578 1.80391L40.0583 30.5933H38.7422L40.0583 -6.29425e-05Z" fill="url(#paint1_linear_486_2970)"/>
<path d="M24.627 6.15461C24.627 6.15461 29.0186 5.9866 29.7937 6.3426C30.5682 6.69993 29.5921 13.8573 29.5921 13.8573L31.3437 15.464L29.7073 17.0519C29.7073 17.0519 29.7937 24.3053 28.7603 24.9079C27.727 25.5106 24.1958 24.9079 24.1958 24.9079V23.1C24.1958 23.1 27.0811 23.2813 27.5546 22.8933C28.0281 22.5066 27.9849 16.168 27.9849 16.168L28.7603 15.3213L27.9849 14.4026C27.9849 14.4026 28.1286 9.88527 28.0421 8.64527C27.9849 7.81993 24.627 7.77727 24.627 7.77727V6.15461Z" fill="white"/>
<path d="M14.5662 6.15461C14.5662 6.15461 10.1744 5.9866 9.39895 6.3426C8.62402 6.69993 9.60002 13.8573 9.60002 13.8573L7.84949 15.464L9.48535 17.0519C9.48535 17.0519 9.39895 24.3053 10.4328 24.9079C11.4662 25.5106 14.9964 24.9079 14.9964 24.9079V23.1C14.9964 23.1 12.112 23.2813 11.638 22.8933C11.1646 22.5066 11.2074 16.168 11.2074 16.168L10.4328 15.3213L11.2074 14.4026C11.2074 14.4026 11.064 9.88527 11.1506 8.64527C11.2074 7.81993 14.5662 7.77727 14.5662 7.77727V6.15461Z" fill="white"/>
</g>
<defs>
<linearGradient id="paint0_linear_486_2970" x1="25.9133" y1="34.0479" x2="15.6134" y2="-4.2042" gradientUnits="userSpaceOnUse">
<stop stop-color="#188DC1"/>
<stop offset="1" stop-color="#06BFE7"/>
</linearGradient>
<linearGradient id="paint1_linear_486_2970" x1="43.6179" y1="29.6346" x2="35.937" y2="1.10913" gradientUnits="userSpaceOnUse">
<stop stop-color="#1852A0"/>
<stop offset="1" stop-color="#067ED3"/>
</linearGradient>
</defs>
</svg>
