<svg width="40" height="41" viewBox="0 0 40 41" fill="none" xmlns="http://www.w3.org/2000/svg">
<circle cx="20" cy="20.5312" r="20" fill="#3A86FF"/>
<path d="M31 22.262V30H26.2845V22.78C26.2845 20.9658 25.6022 19.7284 23.8959 19.7284C22.5931 19.7284 21.8171 20.5631 21.4765 21.3695C21.3519 21.6579 21.32 22.0596 21.32 22.4633V30H16.6023C16.6023 30 16.6662 17.7727 16.6023 16.5048H21.32V18.4176L21.2891 18.4616H21.32V18.4176C21.946 17.5 23.0648 16.1881 25.5703 16.1881C28.6731 16.1881 31 18.1177 31 22.262ZM11.6686 10C10.056 10 9 11.0067 9 12.3312C9 13.6263 10.0251 14.6634 11.6068 14.6634H11.6377C13.2834 14.6634 14.3052 13.6263 14.3052 12.3312C14.2765 11.0067 13.2834 10 11.6686 10ZM9.27997 30H13.9954V16.5048H9.27997V30Z" fill="white"/>
</svg>
