<svg width="30" height="31" viewBox="0 0 30 31" fill="none" xmlns="http://www.w3.org/2000/svg">
<path d="M19.9031 0.254913C17.2684 0.255098 14.7417 1.32084 12.8787 3.21773C11.0156 5.11462 9.96893 7.6873 9.96875 10.3699V10.6079H0V30.9219H20.2125V20.4779C22.8232 20.4016 25.2993 19.2813 27.1048 17.3598C28.9103 15.4382 29.8998 12.8699 29.8591 10.211C29.8184 7.55202 28.7508 5.01637 26.8875 3.15299C25.0241 1.28961 22.5149 0.248444 19.9031 0.254913ZM3.4375 27.4219V14.1079H9.96875V20.4849H16.775V27.4219H3.4375ZM20.2125 16.9779C20.1094 16.9849 20.0063 16.9849 19.9031 16.9849H13.4062V10.3699C13.4063 9.07503 13.7797 7.80864 14.48 6.72777C15.1803 5.64689 16.1768 4.79906 17.3459 4.28939C18.515 3.77971 19.8053 3.63061 21.0569 3.86056C22.3084 4.09052 23.4662 4.68941 24.3866 5.583C25.307 6.4766 25.9496 7.62558 26.2347 8.88751C26.5197 10.1494 26.4348 11.4688 25.9904 12.6821C25.546 13.8953 24.7616 14.9491 23.7345 15.7127C22.7074 16.4763 21.4828 16.9163 20.2125 16.9779Z" fill="#FF5C00"/>
</svg>
